<svg xmlns="http://www.w3.org/2000/svg" viewBox="0 0 512 512">
  <defs>
    <linearGradient id="bg" x1="0" y1="0" x2="1" y2="1">
      <stop offset="0" stop-color="#79c765"/>
      <stop offset="1" stop-color="#12351c"/>
    </linearGradient>
    <linearGradient id="card" x1="0" y1="0" x2="1" y2="1">
      <stop offset="0" stop-color="#fff8df"/>
      <stop offset="1" stop-color="#e8d29a"/>
    </linearGradient>
  </defs>
  <rect width="512" height="512" rx="112" fill="url(#bg)"/>
  <circle cx="256" cy="256" r="176" fill="rgba(255,255,255,.10)" stroke="rgba(255,255,255,.28)" stroke-width="14"/>
  <g transform="translate(256 258) rotate(-10) translate(-256 -258)">
    <rect x="156" y="112" width="200" height="276" rx="28" fill="url(#card)" stroke="#6c4a2a" stroke-width="10"/>
    <path d="M256 314c-74-52-108-83-108-126 0-34 26-58 58-58 21 0 39 10 50 27 11-17 29-27 50-27 32 0 58 24 58 58 0 43-34 74-108 126z" fill="#d82432"/>
    <text x="192" y="178" font-family="Arial, sans-serif" font-size="52" font-weight="900" fill="#d82432">♥</text>
    <text x="282" y="358" font-family="Arial, sans-serif" font-size="52" font-weight="900" fill="#d82432">♥</text>
  </g>
</svg>
